<svg xmlns="http://www.w3.org/2000/svg" width="1100" height="680" role="img" aria-label="Privacy Redflag Canvas interface preview">
  <rect width="1100" height="680" fill="#f6f8fb"/>
  <rect x="40" y="40" width="1020" height="220" fill="#ffffff" stroke="#d9e1ec"/>
  <text x="80" y="95" font-family="Inter,Arial,sans-serif" font-size="17" font-weight="700" fill="#0f766e">LEGAL TECH · SOCIAL DATA · STUDENT INNOVATION</text>
  <text x="80" y="150" font-family="Inter,Arial,sans-serif" font-size="48" font-weight="800" fill="#17202a">Turn any privacy policy into</text>
  <text x="80" y="205" font-family="Inter,Arial,sans-serif" font-size="48" font-weight="800" fill="#17202a">a red-flag canvas.</text>
  <rect x="760" y="74" width="240" height="150" fill="#edf3fb" stroke="#cdd9ea"/>
  <text x="790" y="126" font-family="Inter,Arial,sans-serif" font-size="16" fill="#647084">Today’s canvas</text>
  <text x="790" y="188" font-family="Inter,Arial,sans-serif" font-size="64" font-weight="800" fill="#2454a6">91</text>
  <text x="900" y="186" font-family="Inter,Arial,sans-serif" font-size="18" fill="#647084">risk score</text>
  <rect x="40" y="290" width="500" height="300" fill="#ffffff" stroke="#d9e1ec"/>
  <text x="70" y="335" font-family="Inter,Arial,sans-serif" font-size="22" font-weight="700" fill="#17202a">Paste policy text</text>
  <rect x="70" y="360" width="440" height="190" fill="#fbfcfe" stroke="#d9e1ec"/>
  <text x="90" y="398" font-family="Inter,Arial,sans-serif" font-size="16" fill="#647084">We collect precise location, face data...</text>
  <rect x="570" y="290" width="490" height="300" fill="#ffffff" stroke="#d9e1ec"/>
  <text x="600" y="335" font-family="Inter,Arial,sans-serif" font-size="22" font-weight="700" fill="#17202a">Red-flag results</text>
  <rect x="600" y="365" width="120" height="75" fill="#f3f6fa" stroke="#d9e1ec"/>
  <rect x="735" y="365" width="120" height="75" fill="#f3f6fa" stroke="#d9e1ec"/>
  <rect x="870" y="365" width="120" height="75" fill="#f3f6fa" stroke="#d9e1ec"/>
  <text x="622" y="414" font-family="Inter,Arial,sans-serif" font-size="32" font-weight="800" fill="#b42318">91</text>
  <text x="760" y="414" font-family="Inter,Arial,sans-serif" font-size="32" font-weight="800" fill="#2454a6">6</text>
  <text x="895" y="414" font-family="Inter,Arial,sans-serif" font-size="32" font-weight="800" fill="#0f766e">12</text>
  <rect x="600" y="470" width="390" height="18" fill="#eef2f6"/>
  <rect x="600" y="470" width="320" height="18" fill="#2454a6"/>
  <rect x="600" y="510" width="390" height="18" fill="#eef2f6"/>
  <rect x="600" y="510" width="250" height="18" fill="#0f766e"/>
</svg>
